Coordinates
version=1
nRows=16
nColumns=40
inDegrees=yes

Units are S.I. units (second, meters, Newtons, ...)
Angles are in degrees.

endheader
time	pelvis_tilt	pelvis_list	pelvis_rotation	pelvis_tx	pelvis_ty	pelvis_tz	hip_flexion_r	hip_adduction_r	hip_rotation_r	knee_angle_r	knee_angle_r_beta	ankle_angle_r	subtalar_angle_r	mtp_angle_r	hip_flexion_l	hip_adduction_l	hip_rotation_l	knee_angle_l	knee_angle_l_beta	ankle_angle_l	subtalar_angle_l	mtp_angle_l	lumbar_extension	lumbar_bending	lumbar_rotation	arm_flex_r	arm_add_r	arm_rot_r	elbow_flex_r	pro_sup_r	wrist_flex_r	wrist_dev_r	arm_flex_l	arm_add_l	arm_rot_l	elbow_flex_l	pro_sup_l	wrist_flex_l	wrist_dev_l
      1.11000000	     -1.89475144	     -1.61801369	      4.84205090	     -0.16596926	      0.89258896	     -1.04297082	     27.50528865	     -4.22356366	    -15.05849840	    -47.81013506	     -0.83444427	      4.43554251	    -16.98359054	     21.62037577	      9.86318325	      0.34622108	      6.15496058	    -26.71018721	     -0.46618071	     13.26204701	      4.44185711	     -0.35978955	     -4.20911257	     -0.58629618	     -7.43398215	     -4.77725926	     -7.76824531	    -16.80291660	     22.58432804	     89.95437384	      0.00000000	      0.00000000	      5.37035335	     12.50500751	     19.66012753	     43.55897868	     89.95437384	      0.00000000	      0.00000000
      1.12000000	     -2.32588342	     -1.33792405	      4.98402680	     -0.15802742	      0.89144933	     -1.04317825	     28.42668991	     -4.57295364	    -14.95089058	    -45.29820040	     -0.79060274	      4.53688631	    -16.32846945	     21.22648786	      9.69384141	      0.06290794	      6.30331489	    -26.62219511	     -0.46464496	     13.38807700	      4.15665692	     -0.46507307	     -3.79084493	     -0.87972747	     -7.56460935	     -5.19856490	     -7.70310170	    -16.80346377	     22.64115274	     89.95437384	      0.00000000	      0.00000000	      5.81890012	     12.67130318	     19.60255625	     44.36387953	     89.95437384	      0.00000000	      0.00000000
      1.13000000	     -2.16940743	     -1.78438270	      5.24164623	     -0.14980109	      0.89137775	     -1.04282127	     28.34026443	     -3.86341717	    -14.79717071	    -42.11011649	     -0.73496018	      4.22827438	    -15.60175788	     20.77106223	      8.89634562	      0.70985395	      6.23138503	    -26.47650646	     -0.46210221	     13.76056719	      3.50480874	     -0.90010109	     -4.01531460	     -0.35233583	     -7.83484411	     -5.22283623	     -7.62659747	    -17.13578138	     22.29811274	     89.95437384	      0.00000000	      0.00000000	      6.23420985	     12.77670337	     19.68080342	     45.27985270	     89.95437384	      0.00000000	      0.00000000
      1.14000000	     -2.41218047	     -1.82802531	      5.40028287	     -0.14176815	      0.89057315	     -1.04263740	     28.79507368	     -3.77013229	    -14.74007069	    -39.18108091	     -0.68383887	      4.19588243	    -14.73965803	     20.21401519	      8.53099999	      0.87060094	      6.34139583	    -26.36194608	     -0.46010276	     13.94670069	      2.91068379	     -1.24928590	     -3.81040050	     -0.28508764	     -7.98666911	     -5.44711370	     -7.54247464	    -17.31966291	     22.19378966	     89.95437384	      0.00000000	      0.00000000	      6.64533771	     12.93649207	     19.52292801	     46.04250321	     89.95437384	      0.00000000	      0.00000000
      1.15000000	     -2.56922084	     -1.95700205	      5.60569096	     -0.13368249	      0.88986306	     -1.04225625	     29.00101442	     -3.54508847	    -14.65852718	    -36.05760476	     -0.62932392	      4.31218017	    -13.62998175	     19.46501391	      8.16883912	      1.18408068	      6.52043778	    -26.43732027	     -0.46141828	     14.16725249	      2.23407238	     -1.77763514	     -3.69891978	     -0.13422722	     -8.15986646	     -5.66866091	     -7.41454387	    -17.66613650	     22.12372468	     89.95437384	      0.00000000	      0.00000000	      7.06725527	     13.08438852	     19.43147233	     46.81794102	     89.95437384	      0.00000000	      0.00000000
      1.16000000	     -2.84030147	     -2.02719655	      5.85180583	     -0.12568575	      0.88893164	     -1.04200790	     29.32875925	     -3.47557544	    -14.64198052	    -33.07986154	     -0.57735250	      4.55335876	    -12.37938970	     18.65290034	      7.95499822	      1.42443859	      6.75125199	    -26.49742804	     -0.46246736	     14.34950619	      1.62033474	     -2.31281373	     -3.47608537	     -0.04554215	     -8.33485245	     -5.88760729	     -7.34121466	    -17.77542712	     22.09139317	     89.95437384	      0.00000000	      0.00000000	      7.49997115	     13.21193308	     19.23572795	     47.50620806	     89.95437384	      0.00000000	      0.00000000
      1.17000000	     -3.35698993	     -1.80566855	      6.04934962	     -0.11796479	      0.88758152	     -1.04191317	     30.00079207	     -3.72576921	    -14.41276152	    -30.38529133	     -0.53032338	      4.87309763	    -11.37139803	     18.25420196	      7.95071404	      1.19040804	      6.64079371	    -26.49116870	     -0.46235812	     14.43380722	      1.38232776	     -2.45834975	     -3.03086118	     -0.29171265	     -8.50770526	     -6.13767798	     -7.25472146	    -17.81481033	     22.11025823	     89.95437384	      0.00000000	      0.00000000	      7.88502077	     13.37581992	     19.01172091	     48.16071649	     89.95437384	      0.00000000	      0.00000000
      1.18000000	     -3.44870403	     -2.00658444	      6.36090597	     -0.10972104	      0.88689189	     -1.04156092	     30.00186291	     -3.59271482	    -14.93937593	    -27.56644847	     -0.48112529	      5.25162696	     -9.74170704	     17.14928512	      7.55016732	      1.58776936	      6.69800262	    -26.57535725	     -0.46382748	     14.59625319	      0.85024084	     -3.20661059	     -2.97057742	     -0.03432542	     -8.74436859	     -6.24121935	     -7.14690135	    -18.21242845	     21.95472586	     89.95437384	      0.00000000	      0.00000000	      8.30836950	     13.46416690	     18.84853478	     48.71519453	     89.95437384	      0.00000000	      0.00000000
      1.19000000	     -3.89555035	     -1.87427558	      6.57965469	     -0.10191741	      0.88561519	     -1.04133158	     30.54920804	     -3.78950689	    -15.12872075	    -25.14586108	     -0.43887807	      5.48312526	     -8.71428297	     16.70874234	      7.55189151	      1.46945306	      6.55161170	    -26.70705034	     -0.46612596	     14.63131043	      0.73819350	     -3.39647149	     -2.60463889	     -0.17407034	     -8.89898566	     -6.39876165	     -7.07348596	    -18.29287752	     21.89350176	     89.95437384	      0.00000000	      0.00000000	      8.68200290	     13.57929791	     18.68425559	     49.33738606	     89.95437384	      0.00000000	      0.00000000
      1.20000000	     -4.01070526	     -1.97825937	      6.97172593	     -0.09359289	      0.88477820	     -1.04100956	     30.66485694	     -3.91290145	    -16.33322976	    -23.00944255	     -0.40159053	      5.82936859	     -6.75656466	     15.32964368	      7.25350290	      1.77681057	      6.62767518	    -26.95746721	     -0.47049656	     14.74470460	      0.31806359	     -4.09393915	     -2.51789132	     -0.03493626	     -9.21593521	     -6.51533494	     -6.98208134	    -18.44027274	     21.82850322	     89.95437384	      0.00000000	      0.00000000	      9.05224766	     13.64317751	     18.59632298	     49.83015861	     89.95437384	      0.00000000	      0.00000000
      1.21000000	     -4.39309834	     -1.82900587	      7.22148054	     -0.08538377	      0.88355511	     -1.04046419	     31.13410785	     -4.12197035	    -16.90839941	    -21.13383112	     -0.36885494	      5.98049107	     -5.66820359	     14.91458990	      7.15252059	      1.71171943	      6.56361275	    -27.07927410	     -0.47262249	     14.82219698	      0.16289497	     -4.25653378	     -2.16466675	     -0.22247017	     -9.40540436	     -6.66092980	     -6.84856765	    -18.53152238	     21.75883888	     89.95437384	      0.00000000	      0.00000000	      9.33360642	     13.78543082	     18.39122291	     50.32037749	     89.95437384	      0.00000000	      0.00000000
      1.22000000	     -4.30208672	     -1.86544775	      7.65453885	     -0.07652230	      0.88296375	     -1.04025625	     31.18017459	     -4.60511732	    -19.48000412	    -20.05179843	     -0.34996990	      5.92218116	     -1.96912572	      9.91573016	      6.51910605	      2.01250427	      6.70863229	    -27.16196224	     -0.47406567	     14.60827928	     -0.55987456	     -6.17810759	     -2.26396708	     -0.10650234	     -9.72483471	     -6.72132942	     -6.78980257	    -18.65864551	     21.59013085	     89.95437384	      0.00000000	      0.00000000	      9.67432533	     13.81896541	     18.30698303	     50.63753266	     89.95437384	      0.00000000	      0.00000000
      1.23000000	     -4.50443564	     -1.90767940	      7.94014213	     -0.06800248	      0.88199532	     -1.03958041	     31.40193140	     -4.55495057	    -19.99635878	    -18.70950917	     -0.32654254	      5.60781632	     -1.09606897	      9.56443357	      6.26098555	      2.22886965	      6.65281704	    -27.35713354	     -0.47747205	     14.70642882	     -0.70125519	     -6.30555225	     -2.06764103	     -0.04380641	     -9.96806408	     -6.76894643	     -6.70366190	    -18.78194163	     21.49330610	     89.95437384	      0.00000000	      0.00000000	      9.86759166	     13.88126284	     18.23789699	     51.06371447	     89.95437384	      0.00000000	      0.00000000
      1.24000000	     -4.72277295	     -1.74515198	      8.09583792	     -0.05939912	      0.88097166	     -1.03890309	     31.82104966	     -4.71741668	    -20.28154995	    -18.08383001	     -0.31562238	      5.71358733	     -0.89635940	      9.41256630	      5.90860106	      2.23369044	      6.79044913	    -27.43302090	     -0.47879654	     14.70584577	     -0.77208312	     -6.30162049	     -1.87141691	     -0.18732368	     -9.98817825	     -6.85900637	     -6.65033649	    -18.74930751	     21.40503521	     89.95437384	      0.00000000	      0.00000000	     10.14580330	     13.85428963	     18.16266856	     51.30713833	     89.95437384	      0.00000000	      0.00000000
      1.25000000	     -4.67818259	     -1.78985669	      8.50180547	     -0.05026391	      0.88039794	     -1.03829258	     31.55515841	     -4.60403297	    -20.28647770	    -17.09585862	     -0.29837902	      5.85292454	      0.13110185	      9.10807962	      5.34177632	      2.51554603	      6.59055191	    -27.58915909	     -0.48152166	     14.66174601	     -1.18153123	     -6.41794418	     -1.86575398	     -0.08076291	    -10.36474924	     -6.78522930	     -6.57730971	    -18.81935298	     21.10221536	     89.95437384	      0.00000000	      0.00000000	     10.26055554	     13.91508198	     18.06051439	     51.50706664	     89.95437384	      0.00000000	      0.00000000
      1.26000000	     -4.78975764	     -1.67112815	      8.68575758	     -0.04115521	      0.87947731	     -1.03747751	     31.84286416	     -4.71058840	    -20.12407950	    -17.24023408	     -0.30089885	      5.76266835	      0.17348379	      8.91965940	      4.95330534	      2.60193592	      6.54287602	    -27.85531987	     -0.48616705	     14.40833005	     -1.19260915	     -6.33106873	     -1.72685323	     -0.15936716	    -10.39021398	     -6.98838625	     -6.52737978	    -18.74505024	     21.22829468	     89.95437384	      0.00000000	      0.00000000	     10.39160068	     13.85405775	     18.01601834	     51.72496477	     89.95437384	      0.00000000	      0.00000000
